# xmcd CD database file
#
# Track frame offsets:
#	150
#	16204
#	42266
#	58488
#	70994
#
# Disc length: 1213 seconds
#
# Revision: 1
# Processed by: cddbd v1.5.1PL0 Copyright (c) Steve Scherf et al.
# Submitted via: CDex 1.51
#
DISCID=4304bb05
DTITLE=Les doits de l'Homme - Gypsy Jazz Nucléaire
DYEAR=2004
DGENRE=Jazz
TTITLE0=Métal Hurlant
TTITLE1=Le Boléro
TTITLE2=El camino de Lan Plufur
TTITLE3=Môssieu Ducon
TTITLE4=La muchedumbre
EXTD=YEAR: 2004
EXTT0=
EXTT1=
EXTT2=
EXTT3=
EXTT4=
PLAYORDER=
